<svg width="180" height="180" viewBox="0 0 180 180" xmlns="http://www.w3.org/2000/svg">
  <defs>
    <linearGradient id="bg" x1="0%" y1="0%" x2="100%" y2="100%">
      <stop offset="0%" style="stop-color:#1a1a2e;stop-opacity:1" />
      <stop offset="100%" style="stop-color:#16213e;stop-opacity:1" />
    </linearGradient>
    <linearGradient id="glow" x1="0%" y1="0%" x2="100%" y2="100%">
      <stop offset="0%" style="stop-color:#00ff88;stop-opacity:1" />
      <stop offset="100%" style="stop-color:#0066ff;stop-opacity:1" />
    </linearGradient>
  </defs>
  
  <!-- Background -->
  <rect width="180" height="180" rx="20" fill="url(#bg)"/>
  
  <!-- ATLAS Logo -->
  <g transform="translate(30, 40)">
    <!-- A -->
    <path d="M10 80 L20 20 L30 20 L40 80 L35 80 L32 60 L18 60 L15 80 Z M20 40 L30 40 L28 50 L22 50 Z" fill="url(#glow)" stroke="#00ff88" stroke-width="1"/>
    
    <!-- T -->
    <path d="M50 20 L90 20 L90 30 L75 30 L75 80 L65 80 L65 30 L50 30 Z" fill="url(#glow)" stroke="#00ff88" stroke-width="1"/>
    
    <!-- L -->
    <path d="M10 100 L10 140 L40 140 L40 130 L20 130 L20 100 Z" fill="url(#glow)" stroke="#00ff88" stroke-width="1"/>
    
    <!-- A -->
    <path d="M50 140 L60 100 L70 100 L80 140 L75 140 L72 120 L58 120 L55 140 Z M60 110 L70 110 L68 115 L62 115 Z" fill="url(#glow)" stroke="#00ff88" stroke-width="1"/>
    
    <!-- S -->
    <path d="M90 140 L90 130 L110 130 L110 120 L90 120 L90 100 L120 100 L120 110 L100 110 L100 120 L120 120 L120 140 Z" fill="url(#glow)" stroke="#00ff88" stroke-width="1"/>
  </g>
  
  <!-- Glow effect -->
  <circle cx="90" cy="90" r="5" fill="#00ff88" opacity="0.8">
    <animate attributeName="opacity" values="0.3;1;0.3" dur="2s" repeatCount="indefinite"/>
  </circle>
</svg>
